<svg width="67" height="55" viewBox="0 0 67 55" fill="none" xmlns="http://www.w3.org/2000/svg">
<path d="M59.6527 13.9405C59.6932 14.5263 59.6932 15.1122 59.6932 15.7035C59.6932 33.7194 45.9781 54.4973 20.8994 54.4973V54.4865C13.491 54.4973 6.23661 52.3752 0 48.3741C1.07723 48.5037 2.15986 48.5685 3.2452 48.5712C9.38461 48.5766 15.3485 46.5166 20.1785 42.7234C14.3442 42.6127 9.22802 38.8086 7.44073 33.2551C9.4845 33.6492 11.5904 33.5682 13.5963 33.0202C7.23554 31.7351 2.65933 26.1464 2.65933 19.656C2.65933 19.5966 2.65933 19.5399 2.65933 19.4832C4.55461 20.5389 6.67668 21.1247 8.84734 21.1895C2.85642 17.1857 1.00974 9.21577 4.62751 2.98457C11.5499 11.5025 21.7633 16.6808 32.7273 17.2289C31.6285 12.4934 33.1296 7.53108 36.6718 4.20219C42.1632 -0.959885 50.8 -0.695302 55.9621 4.79345C59.0156 4.19139 61.9422 3.07096 64.6204 1.48346C63.6026 4.63956 61.4724 7.32049 58.6268 9.02409C61.3293 8.70551 63.9698 7.98195 66.4563 6.87772C64.6258 9.62075 62.3202 12.0101 59.6527 13.9405Z" fill="#C4C4C4"/>
</svg>
