<svg width="2190" height="409" viewBox="0 0 2190 409" fill="none" xmlns="http://www.w3.org/2000/svg">
<path d="M742.1 224H824.6C836.2 224 845.6 233.5 845.6 245.1C845.6 256.8 836.2 266.2 824.6 266.2H725.1C723.5 266.2 722 266.8 720.9 267.8L690.9 293.7C686.3 297.7 689.1 305.2 695.1 305.2H819.6C819.6 305.2 819.7 305.2 819.7 305.1C819.7 305 819.8 305 819.8 305C821.4 305.1 822.9 305.2 824.5 305.2C857.5 305.2 884.3 278.3 884.3 245.1C884.3 213.6 860.2 187.7 829.4 185.2C829.4 185.2 829.3 185.2 829.3 185.1C829.3 185 829.3 185 829.2 185H740.4C728.8 185 719.4 175.5 719.4 163.9C719.4 152.2 728.8 142.8 740.4 142.8H839.7C841.3 142.8 842.9 142.2 844.1 141.1L872 115.2C876.4 111.1 873.5 103.8 867.6 103.8H742.1C741.6 103.8 741 103.8 740.5 103.8C707.5 103.8 680.7 130.7 680.7 163.9C680.7 197.1 707.5 224 740.5 224C741 224 741.5 224 742.1 224Z" fill="#D5D5D5"/>
<path d="M1222.3 103.7C1218.7 103.7 1215.8 106.6 1215.8 110.3V298.7C1215.8 302.3 1218.7 305.3 1222.3 305.3H1373.3C1375.1 305.3 1376.8 304.5 1378.1 303.2L1397 282.9C1400.9 278.7 1398 271.8 1392.2 271.8H1260.4C1256.8 271.8 1253.9 268.9 1253.9 265.2V110.2C1253.9 106.6 1251 103.6 1247.4 103.6H1222.3V103.7Z" fill="#D5D5D5"/>
<path fill-rule="evenodd" clip-rule="evenodd" d="M980.5 103.7C980.5 103.8 980.5 103.8 980.5 103.7C961.2 104.6 945.7 120.1 944.8 139.4V266.1C944.8 266.6 944.8 267.2 944.8 267.7C944.8 287.8 960.6 304.2 980.5 305H1117.5C1137.3 304.1 1153.2 287.7 1153.2 267.7C1153.2 267.2 1153.2 266.6 1153.2 266.1V139.5C1152.4 120.2 1136.9 104.6 1117.6 103.8H980.5V103.7ZM1006.1 139.5C1006 139.5 1006 139.5 1006.1 139.5C994 140 984.3 149.8 983.8 162V241.7C983.8 242 983.8 242.4 983.8 242.7C983.8 255.3 993.7 265.7 1006.1 266.2H1092C1104.4 265.7 1114.3 255.3 1114.3 242.7C1114.3 242.4 1114.3 242 1114.3 241.7V162C1113.8 149.8 1104.1 140.1 1092 139.5H1006.1Z" fill="#D5D5D5"/>
<path fill-rule="evenodd" clip-rule="evenodd" d="M1616.5 298.7C1616.5 302.3 1619.4 305.3 1623 305.3H1648.6C1652.2 305.3 1655.1 302.4 1655.1 298.7V142.8C1655.1 142.3 1655.1 141.7 1655.1 141.2C1655.1 121.1 1639.4 104.7 1619.8 103.9H1488.3C1487.8 103.9 1487.2 103.9 1486.7 103.9C1466.3 103.9 1449.8 120.6 1449.8 141.3C1449.8 141.8 1449.8 142.4 1449.8 142.9V298.8C1449.8 302.4 1452.7 305.4 1456.3 305.4H1481.9C1485.5 305.4 1488.4 302.5 1488.4 298.8V233.9C1488.4 230.3 1491.3 227.3 1494.9 227.3H1610.3C1613.9 227.3 1616.8 230.2 1616.8 233.9V298.7H1616.5ZM1488.2 191.4V159C1488.2 146.4 1498.3 136.2 1510.7 136.2H1594.1C1606.5 136.2 1616.6 146.4 1616.6 159V191.4C1616.6 195 1613.7 198 1610.1 198H1494.7C1491.1 198 1488.2 195.1 1488.2 191.4Z" fill="#D5D5D5"/>
<path fill-rule="evenodd" clip-rule="evenodd" d="M2157 305.3C2153.4 305.3 2150.5 302.4 2150.5 298.7V233.8C2150.5 230.2 2147.6 227.2 2144 227.2H2027.3C2023.7 227.2 2020.8 230.1 2020.8 233.8V298.7C2020.8 302.3 2017.9 305.3 2014.3 305.3H1988.5C1984.9 305.3 1982 302.4 1982 298.7V142.8C1982 142.3 1982 141.7 1982 141.2C1982 120.6 1998.7 103.8 2019.3 103.8C2019.8 103.8 2020.4 103.8 2020.9 103.8H2153.8C2173.6 104.7 2189.5 121.1 2189.5 141.1C2189.5 141.6 2189.5 142.2 2189.5 142.7V298.6C2189.5 302.2 2186.6 305.2 2183 305.2H2157V305.3ZM2020.8 159V191.4C2020.8 195 2023.7 198 2027.3 198H2144C2147.6 198 2150.5 195.1 2150.5 191.4V159C2150.5 146.4 2140.3 136.2 2127.8 136.2H2043.5C2030.9 136.2 2020.8 146.4 2020.8 159Z" fill="#D5D5D5"/>
<path d="M1751.5 103.7C1753.4 103.7 1755.2 104.5 1756.4 106L1871.2 242.9C1875.1 247.5 1882.6 244.7 1882.6 238.6V110.3C1882.6 106.7 1885.5 103.7 1889.1 103.7H1914.7C1918.3 103.7 1921.2 106.6 1921.2 110.3V298.7C1921.2 302.3 1918.3 305.3 1914.7 305.3H1882.9C1882.8 305.3 1882.7 305.2 1882.7 305.1C1882.7 305 1882.7 305 1882.6 304.9L1765.8 169C1761.9 164.4 1754.4 167.3 1754.4 173.3V298.8C1754.4 302.4 1751.5 305.4 1747.9 305.4H1722.1C1718.5 305.4 1715.6 302.5 1715.6 298.8V110.3C1715.6 106.7 1718.5 103.7 1722.1 103.7H1751.5V103.7Z" fill="#D5D5D5"/>
<path d="M85.4001 312.2C88.6001 309 92.9001 307.2 97.4001 307.2H513.9C521.5 307.2 525.3 316.4 519.9 321.7L437.6 404C434.4 407.2 430.1 409 425.6 409H9.10007C1.50007 409 -2.29993 399.8 3.10007 394.5L85.4001 312.2Z" fill="#D5D5D5"/>
<path d="M85.4001 5C88.6001 1.8 92.9001 0 97.4001 0H513.9C521.5 0 525.3 9.2 519.9 14.5L437.6 96.7C434.4 99.9 430.1 101.7 425.6 101.7H9.10007C1.50007 101.7 -2.29993 92.5 3.10007 87.2L85.4001 5Z" fill="#D5D5D5"/>
<path d="M437.6 157.6C434.4 154.4 430.1 152.6 425.6 152.6H9.10007C1.50007 152.6 -2.29993 161.8 3.10007 167.1L85.4001 249.3C88.6001 252.5 92.9001 254.3 97.4001 254.3H513.9C521.5 254.3 525.3 245.1 519.9 239.8L437.6 157.6Z" fill="#D5D5D5"/>
</svg>
